<svg width="1392" height="768" viewBox="0 0 1392 768" fill="none" xmlns="http://www.w3.org/2000/svg">
<g id="logo_letter">
<g id="R">
<path id="letter_r" d="M535.412 176.703C525.548 189.205 509.833 204.412 488.224 222.463C466.56 240.5 442.464 258.84 415.896 277.536C389.383 296.219 362.155 314.422 334.295 332.115C306.45 349.809 281.351 364.879 259.042 377.326C253.794 379.949 250.236 382.23 248.244 384.208L246.266 376.323C249.535 362.599 253.505 346.828 258.066 329.134C262.668 311.441 267.435 293.596 272.339 275.545C277.244 257.507 282.011 240.157 286.626 223.452C291.187 206.692 295.432 192.131 299.402 179.685C303.963 164.615 316.602 150.836 337.222 138.39C357.896 125.943 380.852 115.737 406.074 107.906C431.309 100.021 456.051 95.2678 480.338 93.6193C504.585 91.9845 522.279 94.471 533.434 101.01C545.22 107.549 552.268 117.069 554.589 129.515C556.87 142.003 550.482 157.718 535.412 176.703ZM619.485 114.789C614.581 97.7405 607.685 81.9837 598.81 67.5456C589.991 53.1762 579.619 42.9692 567.832 37.0621C539.671 23.9841 510.327 13.8183 479.844 6.57864C449.36 -0.606058 418.025 -1.89738 385.907 2.66346C328.897 9.9031 274.62 23.4895 223.173 43.4637C171.712 63.493 123.384 90.8443 78.1192 125.6C64.9862 135.409 52.6912 146.715 41.2341 159.504C29.7908 172.294 19.4328 185.234 10.2561 198.367C-0.211823 213.437 -2.68462 227.862 2.92026 241.641C8.4702 255.378 20.4218 264.898 38.8026 270.146C44.0228 272.77 48.9683 274.913 53.5291 276.547C58.1449 278.182 63.0492 279.968 68.2969 281.946C78.7649 285.216 87.1446 285.861 93.3952 283.924C99.577 281.946 105.69 276.396 111.584 267.178C116.144 262.618 120.403 257.851 124.373 252.946C128.288 248.042 132.547 243.275 137.108 238.673C139.086 237.382 141.078 236.681 143.001 236.681C144.993 236.681 147.274 236.393 149.897 235.747V242.135C149.897 244.415 149.609 246.902 148.95 249.471C139.086 282.935 130.418 314.422 122.89 343.902C115.348 373.41 108.465 403.743 102.201 434.872C95.9642 466.001 90.4004 499.616 85.4961 535.65C80.5919 571.738 75.8387 613.033 71.2367 659.575C69.9453 674.645 69.7943 686.789 70.7422 695.966C71.7313 705.129 74.5062 712.327 79.1082 717.575C83.669 722.823 90.4005 726.601 99.2886 728.881C108.108 731.203 119.757 732.7 134.182 733.291C145.337 733.978 152.384 732.988 155.296 730.365C158.277 727.741 159.417 720.845 158.772 709.69C158.126 703.151 157.632 697.106 157.288 691.501C156.945 685.951 156.45 680.195 155.791 674.302C155.791 673.011 156.134 672.022 156.794 671.376C157.439 670.73 161.176 668.257 162.811 668.889C164.445 669.535 165.654 673.011 165.654 674.302C166.959 680.896 167.591 687.586 167.591 694.469C167.591 701.365 168.237 707.409 169.583 712.671C170.861 715.94 173.347 718.564 176.974 720.542C180.532 722.479 192.003 726.779 194.173 710.679C194.805 702.162 195.959 691.007 197.58 677.269C199.215 663.491 200.712 649.41 202.045 634.985C203.336 620.561 204.82 606.631 206.455 593.196C208.103 579.774 209.587 568.757 210.878 560.24C211.51 556.325 212.211 553.687 212.842 552.354C213.502 551.063 214.45 549.868 215.782 549.923C223.805 550.294 258.259 568.469 268.424 575.008C278.576 581.547 288.907 588.745 299.402 596.617C309.857 604.502 319.871 612.387 329.391 620.218C338.856 628.103 348.239 634.34 357.402 638.901C389.534 657.941 419.509 678.409 447.368 700.376C475.242 722.328 505.217 742.811 537.335 761.837C540.618 764.42 544.726 766.11 549.63 766.755C554.589 767.387 563.766 771.11 566.39 755.449C567.242 750.366 567.832 746.424 565.895 743.154C562.585 736.615 561.637 730.516 562.928 724.966C564.261 719.416 566.885 714.003 570.813 708.756C580.622 694.331 577.998 680.896 562.928 668.395C556.375 663.147 549.781 657.941 543.242 652.693C536.703 647.432 529.807 642.527 522.622 637.911C493.128 618.239 463.441 598.76 433.645 579.417C403.793 560.089 373.118 540.897 341.686 521.871C337.73 518.601 333.952 515.964 330.38 514.041C326.767 512.049 322.646 509.425 318.085 506.155C316.753 504.864 316.121 502.735 316.121 499.768C316.121 496.841 316.753 494.698 318.085 493.366C320.022 490.742 322.303 488.613 324.926 486.978C327.55 485.329 329.886 483.901 331.823 482.554C360.671 461.591 389.039 441.122 416.885 421.093C444.745 401.119 472.467 380.636 500.024 359.618C514.394 348.463 527.032 337.363 537.83 326.208C548.696 315.053 558.518 303.404 567.324 291.26C576.212 279.171 584.578 266.231 592.422 252.452C600.308 238.673 608.825 223.947 618.002 208.19C623.909 197.035 626.876 182.954 626.876 165.906C626.876 148.844 624.39 131.851 619.485 114.789Z" fill="#040606"/>
</g>
<g id="A">
<path id="letter_a" d="M725.203 430.664C724.708 433.245 723.163 436.32 720.598 439.89C703.197 457.83 685.992 476.175 669.087 494.911C652.136 513.601 634.946 531.946 617.546 549.887C616.496 550.937 615.446 551.717 614.456 552.212C613.421 552.722 612.131 553.502 610.586 554.507C610.106 553.502 609.551 552.467 609.056 551.432C608.561 550.442 608.306 549.392 608.306 548.357C612.386 526.831 617.381 505.816 623.291 485.295C629.186 464.775 638.801 445.785 652.136 428.339C656.741 422.684 662.007 417.989 667.902 414.119C673.797 410.249 679.842 406.829 685.992 403.754C689.052 401.669 693.027 401.174 697.932 402.224C702.792 403.214 707.412 405.284 711.762 408.359C716.128 411.434 719.608 415.004 722.128 419.129C724.708 423.239 725.758 427.049 725.203 430.664ZM848.34 211.031C846.255 207.701 840.84 205.271 832.185 203.696C824.444 202.691 817.649 200.02 811.754 195.655C805.859 191.29 800.099 186.535 794.444 181.375C787.259 174.745 780.074 170.125 772.934 167.545C765.748 164.98 758.023 164.98 749.848 167.545C720.598 175.78 695.712 190.645 675.237 212.171C666.507 220.886 658.287 230.111 650.591 239.876C642.911 249.641 634.691 259.106 626.006 268.332C619.826 276.552 613.271 284.247 606.386 291.432C599.44 298.617 592.645 306.297 586 314.472C583.93 316.558 581.905 318.747 579.805 321.027C577.78 323.353 576.25 326.278 575.2 329.893C574.705 330.943 574.705 332.578 575.2 334.903C575.695 337.183 576.49 338.623 577.525 339.118C584.71 345.268 593.785 347.593 604.841 346.063C615.851 344.518 624.416 340.153 630.626 332.968C637.751 324.733 701.262 261.386 714.852 250.631C728.413 239.876 741.913 229.121 755.248 218.306C765.493 210.626 770.113 213.206 769.078 226.046C765.493 250.136 762.028 273.732 758.713 296.787C755.338 319.888 752.158 343.228 749.098 366.823C748.063 372.479 743.938 374.758 736.753 373.708C735.223 373.213 733.288 372.823 731.008 372.568C728.668 372.328 726.793 371.428 725.203 369.898C712.917 364.243 700.212 360.928 687.132 359.878C674.052 358.843 661.107 358.843 648.311 359.878C629.321 361.423 611.636 366.178 595.225 374.113C578.77 382.094 564.94 393.989 553.69 409.904C536.229 437.07 524.544 465.42 518.679 494.911C512.799 524.416 512.649 554.507 518.304 585.287C519.834 596.582 524.829 606.603 533.259 615.273C541.734 624.003 553.69 628.908 569.065 629.898C587.545 630.933 604.556 629.148 620.201 624.543C635.876 619.878 649.556 610.173 661.347 595.292C671.622 581.957 681.867 568.727 692.142 555.692C702.387 542.596 712.663 529.906 722.923 517.561C723.973 515.536 725.203 514.006 726.793 512.956C728.323 511.966 730.108 510.931 732.133 509.881C733.678 514.006 734.473 517.321 734.473 519.901C735.463 527.581 736.258 535.171 736.753 542.597C737.248 550.037 737.788 557.567 738.283 565.307C738.283 565.307 738.433 579.377 738.688 586.082C738.943 592.712 739.318 599.657 739.813 606.843C741.913 618.648 747.808 627.078 757.528 632.223C767.278 637.338 776.999 637.083 786.764 631.428C789.839 630.933 791.384 629.403 791.384 626.823C792.419 618.093 797.669 561.197 797.924 554.507C798.164 547.862 798.824 540.916 799.859 533.731C803.414 501.406 807.134 469.89 811.004 439.095C814.829 408.359 818.849 377.339 822.9 346.063C826.035 326.578 829.995 307.197 834.84 287.952C839.715 268.722 843.975 249.341 847.545 229.856C850.125 220.646 850.365 214.346 848.34 211.031Z" fill="#040606"/>
</g>
<g id="U">
<path id="letter_u" d="M1176.03 180.626C1183.73 182.169 1189.89 188.325 1194.48 199.094C1199.09 209.863 1200.38 220.631 1198.34 231.4C1194.76 246.284 1191.04 261.151 1187.18 276.018C1183.34 290.902 1180.13 306.026 1177.57 321.408C1171.42 359.887 1165.52 397.954 1159.88 435.662C1154.22 473.352 1148.83 511.695 1143.71 550.666C1141.67 565.547 1140.52 580.799 1140.26 596.44C1139.99 612.09 1139.35 627.595 1138.32 642.983C1137.83 645.544 1137.17 648.236 1136.4 651.06C1135.65 653.872 1134.74 655.544 1133.71 656.057C1125 657.082 1116.41 658.236 1107.94 659.521C1099.48 660.796 1091.13 661.443 1082.94 661.443C1076.27 660.93 1071.28 658.236 1067.93 653.37C1064.61 648.486 1062.94 642.716 1062.94 636.058C1061.4 627.345 1059.98 618.245 1058.71 608.75C1057.42 599.262 1057.03 590.164 1057.56 581.437C1059.1 555.282 1060.88 529.389 1062.94 503.738C1064.98 478.102 1067.04 452.192 1069.1 426.042C1069.6 422.458 1069.36 418.857 1068.33 415.273C1066.8 416.302 1065.36 417.331 1064.11 418.343C1062.81 419.389 1061.4 420.401 1059.86 421.43C1049.6 438.869 1039.6 456.033 1029.86 472.958C1020.11 489.883 1010.11 507.339 999.856 525.279C996.787 530.411 993.58 535.161 990.237 539.51C986.893 543.875 983.703 548.358 980.617 552.974C968.322 571.435 953.438 582.975 936.016 587.591C918.56 592.208 899.852 593.497 879.84 591.439C858.8 588.881 846.248 577.337 842.15 556.82C839.578 547.082 837.914 537.586 837.16 528.357C836.388 519.119 835.479 509.637 834.468 499.897C835.479 469.117 839.201 439.246 845.614 410.267C852.027 381.304 859.075 352.188 866.774 322.951C870.855 307.57 875.108 292.308 879.463 277.184C883.801 262.06 888.569 247.056 893.696 232.171C898.308 220.391 906.128 210.891 917.154 203.706C928.179 196.539 939.84 193.967 952.152 196.024C956.782 197.053 961.12 198.716 965.235 201.014C969.334 203.329 973.432 205.764 977.547 208.319C981.131 210.891 974.975 230.903 974.478 232.943C964.721 265.249 955.616 297.692 947.162 330.256C938.708 362.836 932.415 395.794 928.317 429.112C926.259 440.926 924.853 452.57 924.081 464.11C923.31 475.667 921.612 501.972 922.161 503.738C923.241 507.168 923.481 507.305 924.476 509.122C926.002 508.111 927.562 507.082 929.088 506.053C930.614 505.024 931.9 503.995 932.929 502.966C939.6 492.712 946.253 482.578 952.924 472.581C959.594 462.584 966.264 452.467 972.935 442.195C990.374 415.016 1007.81 388.352 1025.25 362.185C1042.67 336.034 1059.86 309.096 1076.8 281.402C1082.44 272.177 1087.43 262.557 1091.8 252.56C1096.14 242.563 1100.38 232.446 1104.49 222.174C1111.66 204.221 1120.9 192.046 1132.18 185.633C1143.45 179.22 1158.08 177.556 1176.03 180.626Z" fill="#040606"/>
</g>
<g id="L">
<path id="letter_l" d="M1391.44 489.109C1390.89 490.152 1390.39 491.44 1389.9 492.977C1389.35 494.017 1388.76 495.158 1387.98 496.446C1387.22 497.736 1386.53 498.876 1386.03 499.867C1372.7 512.705 1359.27 525.395 1345.68 537.986C1332.05 550.528 1318.87 563.465 1306.03 576.8C1296.82 586.567 1288.08 596.58 1279.91 606.841C1271.68 617.102 1263.2 627.363 1254.48 637.574C1251.95 640.648 1249.37 643.224 1246.79 645.309C1244.2 647.339 1240.39 646.547 1235.3 642.979C1232.72 641.938 1229.64 641.442 1226.03 641.442H1216.01C1205.75 641.938 1198.46 640.648 1194.1 637.574C1189.74 634.5 1186.81 627.859 1185.29 617.598C1184.24 610.41 1183.58 603.122 1183.34 595.688C1183.09 588.252 1182.94 580.419 1182.94 572.191V536.054C1185.52 482.716 1190.87 430.418 1199.1 379.116C1207.27 327.802 1216.8 276.305 1227.55 224.497C1230.13 213.194 1233.21 202.147 1236.82 191.393C1240.39 180.64 1243.96 169.63 1247.59 158.326C1250.12 151.145 1253.09 146.767 1256.4 145.246C1259.74 143.707 1265.27 144.202 1272.96 146.767C1280.16 148.306 1287.03 150.632 1293.74 153.71C1300.37 156.788 1307.06 159.865 1313.73 162.943C1321.44 167.047 1323.97 173.99 1321.44 183.699C1317.83 197.036 1314.26 210.135 1310.63 222.958C1307.06 235.746 1304 248.844 1301.41 262.181C1294.23 296.036 1287.69 329.341 1281.78 362.152C1275.9 395.017 1269.89 428.337 1263.75 462.194C1261.17 475.529 1258.58 489.01 1256.02 502.595C1253.47 516.175 1251.16 529.658 1249.11 542.993C1248.56 545.027 1249.11 550.676 1249.11 552.213C1250.65 551.719 1257.3 549.387 1258.35 548.348C1273.2 536.55 1287.58 524.752 1301.41 512.954C1315.28 501.156 1329.63 489.408 1344.48 477.559C1347.09 474.487 1350.15 472.057 1353.72 470.273C1357.33 468.489 1361.14 470.671 1365.26 476.817C1365.26 477.857 1366.71 478.107 1369.53 477.559C1372.31 477.064 1374.49 477.313 1376.03 478.354C1382.22 479.889 1387.32 483.46 1391.44 489.109Z" fill="#040606"/>
</g>
</g>
</svg>
