<svg viewBox="0 0 992 547" fill="none" xmlns="http://www.w3.org/2000/svg">
<g id="logoRaul">
<path class="logoRaul" id="raul" fill-rule="evenodd" clip-rule="evenodd" d="M292.408 0.239889C285.968 0.579565 282.194 0.960815 272.525 2.24813C207.639 10.8878 149.309 30.3588 98.8982 60.2057C90.5714 65.1357 77.6301 73.4701 71.3434 77.951C51.0332 92.4278 42.4757 99.5557 32.1912 110.562C22.9536 120.449 11.1601 135.182 5.88164 143.432C2.26068 149.091 0.308297 154.803 0.0360051 160.537C-0.196708 165.434 0.690307 169.605 2.94028 174.192C6.83428 182.131 13.9802 187.936 24.1805 191.445C25.9408 192.051 28.8932 193.236 30.7416 194.079C32.59 194.923 36.2536 196.404 38.8828 197.372C41.512 198.34 44.8532 199.581 46.3076 200.13C53.5009 202.843 60.8377 203.802 65.4293 202.627C70.0523 201.445 74.4217 197.895 78.321 192.153C78.8656 191.351 80.579 189.348 82.1283 187.702C83.6776 186.057 85.9146 183.534 87.0997 182.097C93.1505 174.757 97.0342 170.539 98.5695 169.639C99.4653 169.114 100.287 168.918 102.693 168.654C104.346 168.473 105.928 168.251 106.21 168.162C106.716 168.001 106.721 168.056 106.605 172.221C106.489 176.344 106.459 176.535 105.339 180.326C103.567 186.322 101.42 193.716 100.648 196.483C100.263 197.861 99.2459 201.468 98.3872 204.499C91.4185 229.096 84.6586 255.56 79.2548 279.398C67.3276 332.013 59.8733 380.673 51.932 457.753C50.1292 475.251 49.9786 477.749 50.1166 487.859C50.2456 497.294 50.4315 498.863 51.9736 503.524C54.563 511.349 60.2215 516.371 69.4646 519.046C76.7676 521.16 88.2553 522.539 99.0234 522.595C109.383 522.648 111.727 521.441 112.815 515.493C113.307 512.806 113.257 506.982 112.688 500.463C111.679 488.926 111.06 481.021 111.092 480.089C111.133 478.913 111.792 478.154 113.519 477.293C115.256 476.427 116.014 476.471 116.756 477.48C117.576 478.594 117.84 479.407 118.284 482.177C118.883 485.905 119.159 489.179 119.321 494.456C119.555 502.107 120.194 506.758 121.319 508.98C121.985 510.298 124.093 512.369 125.701 513.289C130.077 515.79 134.434 515.284 136.495 512.036C137.771 510.026 138.193 508.113 138.739 501.867C139.017 498.684 139.583 493.148 139.995 489.566C140.8 482.57 142.258 469.472 142.866 463.765C143.072 461.836 143.521 457.158 143.865 453.369C145.4 436.459 148.707 408.299 150.147 399.888C151.196 393.755 152.003 391.997 153.77 391.997C156.896 391.997 168.022 396.92 182.038 404.503C195.036 411.535 211.35 423.09 232.289 440.092C241.141 447.281 245.466 450.334 251.452 453.621C260.533 458.609 279.053 470.289 289.875 477.856C302.083 486.392 307.356 490.282 318.961 499.313C325.007 504.017 334.901 511.462 338.625 514.109C351.517 523.272 365.629 532.555 378.705 540.471C380.978 541.847 383.508 543.385 384.326 543.887C386.58 545.271 388.237 545.809 392.399 546.507C395.722 547.064 396.368 547.107 397.539 546.845C400.966 546.078 402.614 543.623 403.636 537.763C403.862 536.468 404.055 534.562 404.066 533.529C404.084 531.803 403.979 531.4 402.777 528.568C401.234 524.935 400.759 522.914 400.753 519.967C400.745 516.026 402.594 511.153 406.036 506.043C409.457 500.963 410.756 497.429 410.764 493.176C410.774 488.112 408.576 483.55 403.849 478.827C402.084 477.063 387.337 465.148 382.083 461.241C378.506 458.581 349.246 439.108 328.73 425.734C296.538 404.748 278.452 393.249 256.837 380.026C255.597 379.268 253.907 378.225 253.08 377.71C252.253 377.194 249.831 375.719 247.698 374.433C245.565 373.146 242.916 371.407 241.811 370.568C239.194 368.579 237.206 367.261 235.044 366.081C232.326 364.597 226.997 360.995 226.307 360.175C225.061 358.693 224.852 355.059 225.884 352.814C226.777 350.872 229.013 348.769 232.886 346.227C236.298 343.988 238.158 342.671 247.318 336.008C257.302 328.746 281.554 311.237 295.539 301.193C301.974 296.572 317.501 285.312 320.75 282.91C321.872 282.081 324.69 279.998 327.013 278.281C341.476 267.589 355.292 257.127 360.915 252.608C385.998 232.449 404.66 210.363 421.657 180.723C422.928 178.507 425.041 174.834 426.352 172.561C427.664 170.287 429.371 167.328 430.146 165.984C430.921 164.64 432.175 162.469 432.933 161.16C433.691 159.851 434.914 157.738 435.651 156.465C436.388 155.191 437.857 152.659 438.916 150.839C444.353 141.493 446.59 131.899 446.59 117.932C446.59 94.0653 439.381 68.8682 426.616 48.1149C421.279 39.4381 414.686 32.4522 407.883 28.2644C404.767 26.3466 397.107 22.912 386.971 18.8872C370.144 12.206 348.373 5.68221 334.367 3.12487C319.625 0.433266 306.218 -0.48856 292.408 0.239889ZM361.42 66.8845C369.915 67.6467 376.664 69.7649 382.277 73.4305C388.8 77.6904 392.994 83.5273 394.78 90.8289C395.455 93.5906 395.499 98.0983 394.879 100.993C393.045 109.558 386.796 120.098 376.965 131.207C363.331 146.615 333.895 171.081 300.549 194.722C297.863 196.626 294.763 198.827 293.661 199.612C281.446 208.313 254.59 226.218 237.549 237.021C217.111 249.978 190.591 265.838 182.815 269.754C181.062 270.637 178.537 272.26 177.604 273.102C176.865 273.77 176.794 273.652 176.05 270.499L175.46 268.001L178.911 254.161C180.809 246.548 182.794 238.686 183.321 236.688C183.848 234.691 184.972 230.407 185.819 227.169C187.753 219.772 189.312 213.897 190.705 208.758C191.302 206.553 192.429 202.383 193.209 199.489C193.988 196.596 195.228 192.031 195.964 189.344C196.7 186.657 197.886 182.318 198.6 179.7C199.313 177.082 200.443 172.968 201.109 170.557C201.776 168.146 202.957 163.862 203.735 161.038C209.13 141.438 212.951 128.633 214.532 124.858C217.633 117.45 223.742 110.351 232.756 103.681C240.92 97.6404 255.873 89.663 269.476 84.0909C300.296 71.4663 336.655 64.662 361.42 66.8845ZM895.847 103.254C894.31 103.847 893.195 104.757 892.06 106.349C890.58 108.423 889.394 111.197 887.637 116.7C886.867 119.111 884.594 126.1 882.587 132.23C876.853 149.741 875.794 153.856 871.471 175.441C865.292 206.284 861.977 224.274 857.048 253.722C850.1 295.223 846.806 322.303 844.144 359.808C842.86 377.897 842.823 379.247 842.95 403.923C843.077 428.454 843.149 430.224 844.383 439.132C845.65 448.278 847.927 452.993 852.092 455.096C855.446 456.788 856.503 456.928 867.427 457.13C878.358 457.332 878.693 457.377 881.33 458.984C882.93 459.959 884.846 460.634 886.018 460.634C888.347 460.634 890.23 458.794 900.385 446.595C905.031 441.012 905.967 439.871 912.799 431.451C925.529 415.759 939.368 401.362 960.487 381.838C966.848 375.957 976.683 366.692 982.203 361.381C988.036 355.768 988.974 354.547 990.686 350.339C991.551 348.213 991.548 348.203 988.905 345.655C986.867 343.69 984.55 342.267 981.529 341.123C979.356 340.3 979.164 340.272 976.221 340.335L973.168 340.401L972.268 339.044C970.365 336.177 967.733 334.433 965.776 334.743C964.236 334.986 961.64 336.652 959.175 338.978C957.968 340.117 954.613 342.952 951.72 345.278C946.205 349.711 936.227 357.922 931.269 362.107C914.431 376.316 912.106 378.244 901.938 386.422C896.231 391.014 895.89 391.244 893.378 392.227C891.939 392.789 890.584 393.25 890.366 393.25C890.03 393.25 889.972 392.822 889.972 390.353C889.972 386.493 891.013 379.637 894.382 361.311C895.67 354.304 896.276 351.115 899.493 334.383C900.169 330.869 900.846 327.262 900.998 326.367C901.15 325.471 901.711 322.371 902.246 319.478C902.781 316.585 903.852 310.667 904.627 306.327C905.402 301.987 906.53 295.731 907.134 292.424C907.737 289.118 908.805 283.2 909.506 279.273C916.254 241.503 920.669 218.439 926.168 192.225C926.804 189.194 927.762 184.572 928.296 181.954C930.048 173.371 931.673 166.818 935.097 154.525C940.3 135.848 941.794 130.181 942.074 128.059C942.793 122.605 940.482 118.302 935.539 115.894C928.503 112.466 918.092 107.859 914.896 106.76C912.969 106.096 905.779 104.126 902.622 103.397C900.377 102.878 897.007 102.807 895.847 103.254ZM538.898 118.317C537.796 118.491 535.477 119.041 533.745 119.54C521.677 123.017 510.769 128.009 500.823 134.606C493.541 139.436 488.617 143.6 480.781 151.555C473.113 159.34 469.866 163.001 462.527 172.142C457.976 177.81 453.672 182.839 448.97 187.98C447.316 189.788 444.726 192.836 443.213 194.752C439.826 199.044 436.421 202.942 431.145 208.565C426.83 213.164 423.144 217.294 419.905 221.157C418.807 222.466 416.756 224.762 415.345 226.259C412.361 229.428 411.591 230.519 410.497 233.139C409.527 235.464 409.356 236.72 409.77 238.483C410.253 240.535 410.633 241.084 412.604 242.567C416.301 245.349 420.219 246.669 425.423 246.883C430.363 247.087 435.985 245.987 440.55 243.924C444.006 242.363 445.986 240.747 451.469 235.014C454.343 232.008 461.946 224.307 468.365 217.901C491.559 194.753 504.381 182.541 510.717 177.565C512.026 176.537 518.779 171.144 525.724 165.581C532.669 160.017 539.182 154.923 540.197 154.26C543.651 152.005 546.056 152.023 547.234 154.313C548.262 156.31 548.249 159.074 547.178 166.173C546.679 169.48 545.828 175.228 545.285 178.948C544.742 182.668 543.673 189.995 542.908 195.231C539.319 219.813 535.846 244.653 534.381 256.227C534.024 259.051 533.556 261.911 533.341 262.582C532.33 265.745 528.665 267.22 524.485 266.146C523.733 265.953 522.273 265.666 521.242 265.509C520.122 265.338 518.912 264.961 518.236 264.572C517.614 264.215 516.645 263.658 516.084 263.334C514.408 262.368 507.994 260.049 504.028 258.974C495.883 256.766 488.462 255.979 475.773 255.978C460.083 255.976 448.607 257.581 436.946 261.405C420.196 266.899 407.592 275.391 397.64 287.886C395.139 291.026 393.921 292.813 391.302 297.185C370.962 331.14 363.016 367.633 367.575 406.15C368.305 412.32 369.909 421.032 370.811 423.728C372.654 429.234 375.43 433.751 379.688 438.17C385.21 443.901 391.835 447.024 401.625 448.51C405.855 449.152 419.023 449.157 424.296 448.518C443.429 446.2 454.119 441.656 464.718 431.339C468.27 427.881 470.052 425.803 475.151 419.176C489.885 400.025 504.173 381.98 512.314 372.238C513.537 370.775 514.962 368.958 515.48 368.2C515.999 367.442 516.689 366.578 517.015 366.279C517.667 365.68 521.229 363.44 521.53 363.44C521.787 363.44 522.675 366.375 522.994 368.278C523.414 370.786 524.444 380.293 524.737 384.357C524.885 386.424 525.177 390.538 525.386 393.5C525.594 396.462 525.927 404.353 526.126 411.035C526.555 425.462 527.029 432.752 527.696 435.208C528.736 439.031 530.788 442.905 533.22 445.635C535.69 448.408 540.437 451.293 544.332 452.389C546.025 452.865 547.021 452.975 549.67 452.976C553.471 452.978 555.578 452.491 558.816 450.863C559.911 450.312 560.932 449.862 561.087 449.862C561.742 449.862 563.119 448.993 563.437 448.38C563.835 447.61 564.356 442.824 566.071 424.186C567.602 407.538 567.987 403.042 568.33 397.759C568.823 390.166 569.116 386.634 569.482 383.856C569.681 382.341 570.18 378.057 570.591 374.337C573.247 350.267 577.881 312.087 581.992 280.4C582.6 275.716 583.218 270.869 583.366 269.629C583.513 268.389 584.074 264.049 584.612 259.985C585.15 255.92 585.77 251.129 585.989 249.338C586.52 245.007 588.837 232.096 590.508 224.163C591.978 217.182 593.125 212.247 595.98 200.617C598.451 190.548 600.497 181.305 602.495 171.183C603.392 166.636 604.379 161.902 604.689 160.662C605.503 157.408 605.525 152.351 604.732 150.869C603.239 148.08 599.182 146.203 592.049 145.004C583.832 143.621 578.315 140.268 565.952 129.143C556.227 120.391 547.614 116.944 538.898 118.317ZM820.083 127.976C819.187 128.098 817.384 128.443 816.075 128.742C809.38 130.273 804.817 132.742 799.957 137.467C794.57 142.703 790.485 149.337 786.526 159.284C785.111 162.837 783.478 166.787 780.828 173.062C774.889 187.124 772.214 192.358 764.892 204.249C758.754 214.216 757.769 215.796 753.023 223.287C743.789 237.862 741.97 240.663 730.704 257.669C719.118 275.16 706.539 294.367 697.772 307.955C693.416 314.706 686.753 324.908 682.964 330.625C679.176 336.343 673.464 344.995 670.272 349.852C666.548 355.518 664.141 358.937 663.556 359.394C662.529 360.194 658.84 362.689 658.682 362.689C658.626 362.689 658.258 361.985 657.866 361.123C657.332 359.953 657.127 359.069 657.054 357.624C656.845 353.485 658.233 331.405 659.412 320.104C659.771 316.662 660.9 308.638 661.139 307.83C661.2 307.623 661.597 304.749 662.022 301.442C664.907 278.972 669.666 255.056 676.077 230.802C681.812 209.104 686.173 193.543 692.469 172.31C696.002 160.394 697.339 154.689 697.339 151.523C697.339 148.883 697.296 148.835 692.372 145.927C685.8 142.047 683.576 141.011 679.553 139.961C676.742 139.228 671.173 139.061 667.655 139.606C655.5 141.488 643.61 150.701 637.978 162.601C636.869 164.945 633.172 175.746 630.368 184.835C626.314 197.973 619.894 220.91 615.537 237.816C609.379 261.716 602.752 290.02 600.436 302.319C597.894 315.814 596.497 326.429 595.376 340.77C594.547 351.379 594.485 356.199 595.101 362.063C595.391 364.818 595.856 369.778 596.136 373.085C596.777 380.667 596.984 382.283 598.05 387.989C599.256 394.444 601.214 401.914 602.421 404.666C604.971 410.481 609.231 415.099 614.607 417.875C621.048 421.202 628.077 422.244 642.31 421.983C650.524 421.833 654.278 421.45 661.06 420.072C669.133 418.432 673.477 416.879 678.862 413.71C686.815 409.029 692.381 403.334 700.345 391.725C701.516 390.018 703.7 386.987 705.199 384.989C708.426 380.686 711.376 376.225 713.731 372.083C714.67 370.429 715.861 368.344 716.377 367.448C716.892 366.553 720.445 360.353 724.272 353.671C728.099 346.989 731.815 340.507 732.531 339.267C733.246 338.027 734.936 335.097 736.287 332.754C741.823 323.154 748.971 310.891 753.089 303.929L755.174 300.404L758.119 298.208C760.798 296.21 761.08 296.058 761.251 296.519C761.584 297.42 762.009 301.142 761.868 301.93C761.793 302.35 761.499 305.851 761.214 309.709C760.929 313.566 760.312 321.457 759.842 327.243C759.372 333.03 758.808 340.132 758.589 343.025C758.37 345.918 757.806 353.02 757.336 358.806C756.48 369.361 756.365 370.889 755.455 383.856C753.585 410.507 753.369 414.816 753.522 422.434C753.67 429.767 753.845 431.406 755.854 444.226C756.48 448.222 757.154 452.956 757.353 454.747C757.803 458.812 758.455 461.231 759.75 463.64C761.737 467.337 764.065 469.405 767.563 470.583C769.499 471.234 769.841 471.269 773.991 471.247C779.28 471.218 784.397 470.727 794.532 469.274C798.734 468.672 803.299 468.056 804.677 467.906C808.305 467.512 808.194 467.56 808.911 466.082C809.89 464.063 811.036 458.93 811.302 455.374C811.56 451.911 812.162 436.301 812.566 422.558C812.928 410.256 813.65 401.586 815.331 389.359C815.747 386.332 816.473 380.925 816.945 377.343C818.367 366.545 821.518 343.979 823.347 331.502C826.162 312.289 829.631 289.153 830.727 282.279C831.067 280.143 831.69 276.085 832.111 273.261C832.532 270.437 833.208 266.04 833.614 263.492C834.02 260.943 834.749 256.321 835.234 253.221C841.079 215.863 841.058 215.967 849.753 181.453C851.905 172.911 853.849 164.908 854.073 163.668C854.568 160.93 854.619 155.169 854.173 152.521C852.804 144.403 849.545 137.143 845.393 132.96C842.632 130.178 840.249 129.038 835.739 128.34C832.579 127.852 822.685 127.622 820.083 127.976ZM499.069 287.151C502.994 288.298 506.631 290.369 509.803 293.263C515.556 298.513 517.921 304.276 516.12 308.657C514.913 311.592 513.847 312.942 507.586 319.466C501.591 325.713 497.672 329.867 490.552 337.52C488.762 339.445 486.612 341.754 485.777 342.649C484.941 343.545 482.012 346.757 479.268 349.788C464.304 366.316 449.182 382.465 441.852 389.743C439.154 392.422 437.789 393.585 436.646 394.174L435.097 394.973L434.393 393.799C433.768 392.754 433.693 392.401 433.72 390.619C433.797 385.594 441.714 352.701 445.733 340.703C448.991 330.982 453.472 321.787 459.252 312.965C465.706 303.115 470.164 298.63 478.781 293.319C482.879 290.794 489.993 287.015 491.402 286.616C493.095 286.136 496.384 286.366 499.069 287.151Z" fill="black" stroke="black" stroke-width="8"/>
</g>
</svg>
