<svg  viewBox="0 0 702 810" fill="none" xmlns="http://www.w3.org/2000/svg">
<g id="logoRaul_ 1">
<g id="logoRaul">

<rect fill="white" x="64.8037" y="54.0643" width="559" height="684"/>
<path class='logoRaul' d="M419.155 58.096C386.024 59.3288 346.265 65.647 308.973 75.6636C269.369 86.2966 86.1418 137.767 72.8891 141.927L67.8037 143.622V439.343C67.8037 601.921 68.266 735.064 69.0365 735.064C69.6529 735.064 116.346 722.12 172.901 706.247L275.841 677.43L276.149 585.74L276.611 493.895L286.628 490.505C292.176 488.81 300.189 486.19 304.504 484.957L312.363 482.646L324.537 498.981C358.902 545.828 421.159 631.354 422.237 633.357C423.624 635.823 413.762 638.443 539.355 602.999C582.965 590.671 619.333 580.192 619.95 579.422C621.028 578.497 581.116 525.178 520.4 446.894C512.233 436.261 505.452 427.323 505.606 426.861C505.606 426.399 510.846 422.238 517.318 417.615C533.807 405.749 560.929 379.244 571.716 364.912C606.851 317.757 617.946 257.349 603.307 192.319C593.752 149.632 570.175 110.491 541.204 89.0704C512.233 67.6503 467.851 56.4009 419.155 58.096ZM241.939 204.955C241.939 272.297 241.784 277.383 239.319 278.77C236.853 280.002 132.064 309.744 114.034 314.367C110.182 315.292 106.021 316.37 104.788 316.833C102.477 317.449 102.168 298.186 103.093 182.456L103.247 171.515L130.677 163.502C170.281 151.79 237.778 132.835 240.089 132.681C241.476 132.527 241.939 147.937 241.939 204.955ZM241.476 390.955L241.168 462.767L230.381 466.465C221.135 469.547 117.579 498.981 106.175 501.6L102.168 502.679L102.322 430.251C102.477 390.339 102.939 357.361 103.401 356.899C103.863 356.437 128.366 349.194 158.107 340.872C230.227 320.377 234.388 319.298 238.394 319.144L241.939 318.99L241.476 390.955ZM241.63 576.802L241.939 648.613L237.007 650.154C167.353 670.496 104.634 687.601 103.555 686.522C103.093 686.214 102.631 653.545 102.477 614.249L102.014 542.591L106.175 541.05C118.503 536.273 236.853 503.758 239.627 504.528C240.552 504.837 241.322 530.572 241.63 576.802Z"/>

<path class='logoRaul' d="M419.155 58.096C386.024 59.3288 346.265 65.647 308.973 75.6636C269.369 86.2966 86.1418 137.767 72.8891 141.927L67.8037 143.622V439.343C67.8037 601.921 68.266 735.064 69.0365 735.064C69.6529 735.064 116.346 722.12 172.901 706.247L275.841 677.43L276.149 585.74L276.611 493.895L286.628 490.505C292.176 488.81 300.189 486.19 304.504 484.957L312.363 482.646L324.537 498.981C358.902 545.828 421.159 631.354 422.237 633.357C423.624 635.823 413.762 638.443 539.355 602.999C582.965 590.671 619.333 580.192 619.95 579.422C621.028 578.497 581.116 525.178 520.4 446.894C512.233 436.261 505.452 427.323 505.606 426.861C505.606 426.399 510.846 422.238 517.318 417.615C533.807 405.749 560.929 379.244 571.716 364.912C606.851 317.757 617.946 257.349 603.307 192.319C593.752 149.632 570.175 110.491 541.204 89.0704C512.233 67.6503 467.851 56.4009 419.155 58.096ZM241.939 204.955C241.939 272.297 241.784 277.383 239.319 278.77C236.853 280.002 132.064 309.744 114.034 314.367C110.182 315.292 106.021 316.37 104.788 316.833C102.477 317.449 102.168 298.186 103.093 182.456L103.247 171.515L130.677 163.502C170.281 151.79 237.778 132.835 240.089 132.681C241.476 132.527 241.939 147.937 241.939 204.955ZM241.476 390.955L241.168 462.767L230.381 466.465C221.135 469.547 117.579 498.981 106.175 501.6L102.168 502.679L102.322 430.251C102.477 390.339 102.939 357.361 103.401 356.899C103.863 356.437 128.366 349.194 158.107 340.872C230.227 320.377 234.388 319.298 238.394 319.144L241.939 318.99L241.476 390.955ZM241.63 576.802L241.939 648.613L237.007 650.154C167.353 670.496 104.634 687.601 103.555 686.522C103.093 686.214 102.631 653.545 102.477 614.249L102.014 542.591L106.175 541.05C118.503 536.273 236.853 503.758 239.627 504.528C240.552 504.837 241.322 530.572 241.63 576.802Z" fill="black"/>
<path class='logoRaul' d="M419.155 58.096C386.024 59.3288 346.265 65.647 308.973 75.6636C269.369 86.2966 86.1418 137.767 72.8891 141.927L67.8037 143.622V439.343C67.8037 601.921 68.266 735.064 69.0365 735.064C69.6529 735.064 116.346 722.12 172.901 706.247L275.841 677.43L276.149 585.74L276.611 493.895L286.628 490.505C292.176 488.81 300.189 486.19 304.504 484.957L312.363 482.646L324.537 498.981C358.902 545.828 421.159 631.354 422.237 633.357C423.624 635.823 413.762 638.443 539.355 602.999C582.965 590.671 619.333 580.192 619.95 579.422C621.028 578.497 581.116 525.178 520.4 446.894C512.233 436.261 505.452 427.323 505.606 426.861C505.606 426.399 510.846 422.238 517.318 417.615C533.807 405.749 560.929 379.244 571.716 364.912C606.851 317.757 617.946 257.349 603.307 192.319C593.752 149.632 570.175 110.491 541.204 89.0704C512.233 67.6503 467.851 56.4009 419.155 58.096ZM241.939 204.955C241.939 272.297 241.784 277.383 239.319 278.77C236.853 280.002 132.064 309.744 114.034 314.367C110.182 315.292 106.021 316.37 104.788 316.833C102.477 317.449 102.168 298.186 103.093 182.456L103.247 171.515L130.677 163.502C170.281 151.79 237.778 132.835 240.089 132.681C241.476 132.527 241.939 147.937 241.939 204.955ZM241.476 390.955L241.168 462.767L230.381 466.465C221.135 469.547 117.579 498.981 106.175 501.6L102.168 502.679L102.322 430.251C102.477 390.339 102.939 357.361 103.401 356.899C103.863 356.437 128.366 349.194 158.107 340.872C230.227 320.377 234.388 319.298 238.394 319.144L241.939 318.99L241.476 390.955ZM241.63 576.802L241.939 648.613L237.007 650.154C167.353 670.496 104.634 687.601 103.555 686.522C103.093 686.214 102.631 653.545 102.477 614.249L102.014 542.591L106.175 541.05C118.503 536.273 236.853 503.758 239.627 504.528C240.552 504.837 241.322 530.572 241.63 576.802Z" stroke="black" stroke-width="10"/>
</g>
</g>
</svg>
