<svg width="71" height="71" viewBox="0 0 71 71" fill="none" xmlns="http://www.w3.org/2000/svg">
<g id="logoLinki">
<path id="rect" d="M0.699432 0.775391H69.6994V69.7754H0.699432V0.775391Z" fill="#FEE9C0" stroke="#FEE9C0"/>
<path id="in" d="M60.2196 40.2694V57.3509H50.5019V41.4968C50.5019 40.1068 49.8619 38.7915 48.7535 37.8344C47.6474 36.8793 46.161 36.3526 44.6238 36.3526C41.4562 36.3526 38.7842 38.6043 38.7842 41.4968V57.3509H29.0665V30.5853H38.7842V33.7675V35.3307L39.6914 34.0577C41.4278 31.6211 45.0677 29.9551 48.1964 29.9551C51.4069 29.9551 54.4738 31.057 56.7248 33.0009C58.9736 34.9428 60.2196 37.5595 60.2196 40.2694ZM20.3184 22.8665C19.2056 23.8274 17.6825 24.3772 16.0818 24.3772C12.7099 24.3772 10.0897 22.0433 10.0897 19.3042C10.0897 17.9756 10.7003 16.6836 11.818 15.7184C12.938 14.7513 14.4708 14.198 16.0818 14.198C19.4455 14.198 22.0354 16.5581 22.0354 19.3042C22.0354 20.624 21.4289 21.9075 20.3184 22.8665ZM11.2805 30.5853H20.9214V57.3509H11.2805V30.5853Z" fill="#161616" stroke="#161616"/>
</g>
</svg>
