<svg width="100" height="100" viewBox="0 0 741 409" fill="none" xmlns="http://www.w3.org/2000/svg">
<path d="M740.669 260.353C740.377 260.908 740.113 261.594 739.85 262.412C739.557 262.966 739.236 263.572 738.826 264.258C738.431 264.944 738.051 265.551 737.787 266.079C730.692 272.913 723.538 279.668 716.311 286.371C709.054 293.047 702.032 299.933 695.2 307.031C690.299 312.229 685.661 317.56 681.302 323.021C676.913 328.484 672.407 333.946 667.769 339.382C666.409 341.018 665.048 342.39 663.673 343.499C662.298 344.58 660.264 344.157 657.557 342.258C656.182 341.704 654.544 341.44 652.613 341.44H647.287C641.816 341.704 637.954 341.018 635.628 339.382C633.301 337.745 631.751 334.21 630.931 328.748C630.375 324.922 630.024 321.044 629.893 317.085C629.761 313.127 629.688 308.958 629.688 304.578V285.341C631.063 256.95 633.916 229.111 638.29 201.801C642.65 174.491 647.712 147.075 653.432 119.501C654.807 113.485 656.446 107.599 658.362 101.875C660.264 96.1487 662.166 90.291 664.097 84.2752C665.443 80.448 667.023 78.1263 668.793 77.3085C670.563 76.4892 673.519 76.754 677.615 78.1263C681.433 78.9441 685.105 80.1847 688.66 81.8203C692.201 83.4559 695.756 85.0915 699.296 86.7286C703.407 88.9187 704.753 92.6127 703.407 97.7843C701.491 104.883 699.589 111.848 697.658 118.683C695.756 125.49 694.117 132.457 692.757 139.555C688.924 157.578 685.442 175.309 682.297 192.777C679.166 210.271 675.962 228.003 672.699 246.025C671.324 253.123 669.964 260.301 668.574 267.531C667.243 274.761 665.999 281.938 664.916 289.037C664.624 290.118 664.916 293.126 664.916 293.943C665.736 293.68 669.276 292.439 669.817 291.885C677.732 285.606 685.383 279.325 692.757 273.045C700.145 266.766 707.767 260.511 715.682 254.204C717.057 252.569 718.681 251.276 720.583 250.326C722.514 249.377 724.547 250.537 726.742 253.809C726.742 254.364 727.503 254.496 729.009 254.204C730.487 253.941 731.643 254.073 732.462 254.627C735.768 255.445 738.49 257.345 740.669 260.353Z" fill="white"/>
<path d="M626.004 96.1486C630.108 96.9679 633.386 100.243 635.837 105.977C638.288 111.709 638.974 117.443 637.882 123.176C635.977 131.096 633.988 139.011 631.943 146.926C629.898 154.848 628.189 162.897 626.817 171.088C623.553 191.562 620.402 211.834 617.405 231.9C614.393 251.965 611.522 272.376 608.805 293.12C607.712 301.04 607.096 309.16 606.97 317.485C606.816 325.816 606.48 334.069 605.948 342.26C605.668 343.623 605.331 345.056 604.925 346.56C604.505 348.057 604.029 348.947 603.483 349.22C598.833 349.766 594.267 350.38 589.771 351.063C585.261 351.742 580.821 352.087 576.465 352.087C572.907 351.814 570.246 350.38 568.467 347.79C566.689 345.189 565.806 342.119 565.806 338.574C564.994 333.936 564.238 329.093 563.551 324.038C562.879 318.988 562.669 314.144 562.935 309.5C563.761 295.577 564.714 281.795 565.806 268.14C566.899 254.491 567.991 240.702 569.084 226.78C569.35 224.871 569.224 222.961 568.678 221.046C567.865 221.598 567.109 222.141 566.423 222.685C565.736 223.237 564.994 223.78 564.168 224.322C558.705 233.607 553.383 242.75 548.201 251.76C543.004 260.769 537.682 270.053 532.234 279.606C530.595 282.338 528.886 284.866 527.108 287.181C525.329 289.505 523.634 291.89 521.995 294.348C515.44 304.175 507.527 310.318 498.241 312.776C488.955 315.233 478.997 315.919 468.352 314.824C457.147 313.461 450.466 307.317 448.281 296.396C446.909 291.212 446.026 286.158 445.62 281.244C445.214 276.33 444.738 271.282 444.192 266.091C444.738 249.712 446.713 233.811 450.116 218.386C453.534 202.964 457.287 187.467 461.377 171.906C463.562 163.717 465.817 155.597 468.142 147.541C470.467 139.49 472.988 131.507 475.719 123.585C478.17 117.307 482.33 112.26 488.199 108.433C494.067 104.612 500.286 103.251 506.841 104.338C509.292 104.888 511.617 105.772 513.802 107C515.987 108.227 518.158 109.529 520.357 110.89C522.261 112.26 518.984 122.907 518.718 123.994C513.522 141.193 508.69 158.463 504.18 175.797C499.67 193.138 496.336 210.676 494.151 228.418C493.045 234.702 492.303 240.907 491.896 247.05C491.476 253.194 490.58 267.199 490.874 268.14C491.448 269.968 491.574 270.042 492.106 271.006C492.919 270.464 493.745 269.918 494.558 269.369C495.384 268.825 496.056 268.279 496.602 267.73C500.146 262.272 503.703 256.879 507.247 251.556C510.791 246.232 514.348 240.845 517.906 235.38C527.178 220.913 536.464 206.714 545.75 192.79C555.022 178.867 564.168 164.535 573.187 149.793C576.185 144.878 578.846 139.761 581.171 134.436C583.482 129.113 585.737 123.726 587.922 118.261C591.746 108.708 596.662 102.227 602.67 98.8097C608.665 95.3992 616.452 94.5113 626.004 96.1486Z" fill="white"/>
<path d="M386.041 229.241C385.771 230.614 384.948 232.25 383.584 234.15C374.323 243.702 365.165 253.465 356.16 263.439C347.143 273.387 337.985 283.15 328.724 292.702C328.171 293.257 327.617 293.678 327.09 293.942C326.537 294.206 325.855 294.628 325.032 295.156C324.762 294.628 324.479 294.075 324.209 293.52C323.951 292.993 323.81 292.437 323.81 291.884C325.971 280.432 328.646 269.245 331.785 258.319C334.924 247.396 340.043 237.29 347.143 228.001C349.6 224.993 352.392 222.487 355.53 220.429C358.669 218.371 361.884 216.551 365.165 214.914C366.798 213.806 368.908 213.542 371.519 214.096C374.104 214.624 376.561 215.731 378.877 217.367C381.205 219.005 383.057 220.903 384.395 223.094C385.771 225.283 386.324 227.316 386.041 229.241ZM451.578 112.321C450.472 110.554 447.604 109.261 442.973 108.417C438.857 107.89 435.255 106.465 432.104 104.142C428.965 101.82 425.904 99.2874 422.894 96.5424C419.073 93.0064 415.253 90.552 411.446 89.1808C407.613 87.8083 403.496 87.8083 399.149 89.1808C383.584 93.5607 370.335 101.477 359.44 112.93C354.797 117.573 350.411 122.481 346.32 127.679C342.23 132.877 337.856 137.918 333.238 142.825C329.933 147.206 326.447 151.295 322.781 155.121C319.089 158.947 315.475 163.038 311.937 167.392C310.831 168.499 309.751 169.66 308.644 170.874C307.564 172.115 306.741 173.672 306.188 175.597C305.93 176.152 305.93 177.022 306.188 178.262C306.458 179.475 306.869 180.242 307.435 180.506C311.256 183.777 316.079 185.018 321.971 184.2C327.823 183.382 332.39 181.059 335.682 177.233C339.49 172.854 373.294 139.13 380.523 133.405C387.752 127.679 394.93 121.953 402.03 116.201C407.484 112.11 409.941 113.483 409.388 120.317C407.484 133.141 405.645 145.701 403.869 157.971C402.081 170.267 400.384 182.695 398.75 195.256C398.197 198.263 396.01 199.477 392.177 198.923C391.367 198.659 390.337 198.448 389.128 198.317C387.881 198.185 386.877 197.71 386.041 196.892C379.494 193.883 372.741 192.116 365.769 191.562C358.797 191.007 351.916 191.007 345.111 191.562C335.001 192.38 325.585 194.912 316.851 199.134C308.078 203.383 300.721 209.716 294.739 218.185C285.452 232.646 279.214 247.74 276.114 263.439C272.962 279.139 272.885 295.156 275.895 311.541C276.718 317.559 279.381 322.889 283.857 327.507C288.372 332.15 294.74 334.762 302.92 335.289C312.761 335.845 321.816 334.896 330.151 332.441C338.487 329.96 345.767 324.789 352.044 316.872C357.511 309.774 362.965 302.729 368.432 295.789C373.899 288.824 379.352 282.068 384.819 275.498C385.372 274.416 386.041 273.598 386.877 273.044C387.701 272.516 388.652 271.962 389.72 271.407C390.543 273.598 390.968 275.367 390.968 276.738C391.495 280.827 391.92 284.865 392.177 288.824C392.447 292.781 392.73 296.791 393 300.909C393 300.909 393.077 308.403 393.206 311.965C393.347 315.501 393.553 319.195 393.823 323.02C394.93 329.301 398.068 333.787 403.239 336.53C408.436 339.248 413.607 339.117 418.803 336.108C420.45 335.845 421.26 335.027 421.26 333.654C421.813 329.011 424.605 298.718 424.746 295.156C424.875 291.62 425.222 287.926 425.775 284.099C427.679 266.895 429.647 250.114 431.705 233.728C433.75 217.367 435.886 200.85 438.047 184.2C439.706 173.829 441.815 163.512 444.401 153.275C446.986 143.037 449.263 132.72 451.154 122.349C452.53 117.441 452.659 114.09 451.578 112.321Z" fill="white"/>
<path d="M284.996 94.0624C279.754 100.711 271.383 108.813 259.88 118.417C248.342 128.022 235.529 137.785 221.382 147.732C207.271 157.68 192.784 167.365 177.945 176.785C163.119 186.205 149.772 194.226 137.894 200.85C135.103 202.247 133.198 203.462 132.143 204.518L131.087 200.322C132.834 193.013 134.933 184.622 137.36 175.202C139.823 165.781 142.359 156.282 144.967 146.678C147.576 137.072 150.112 127.837 152.563 118.945C154.989 110.026 157.27 102.269 159.369 95.6458C161.796 87.6233 168.53 80.2877 179.51 73.6642C190.515 67.0419 202.721 61.6062 216.165 57.4373C229.584 53.2417 242.748 50.7083 255.682 49.8372C268.592 48.9672 278.007 50.2861 283.952 53.7695C290.225 57.2529 293.974 62.3185 295.212 68.942C296.425 75.5909 293.028 83.9555 284.996 94.0624ZM329.755 61.1052C327.146 52.0284 323.47 43.637 318.75 35.958C314.055 28.3056 308.534 22.87 302.261 19.7299C287.265 12.7643 271.649 7.35535 255.427 3.50186C239.193 -0.323711 222.522 -1.0092 205.415 1.41743C175.07 5.27091 146.181 12.4999 118.796 23.1345C91.3997 33.7947 65.6774 48.3605 41.581 66.8574C34.5923 72.0819 28.0405 78.0976 21.9496 84.9055C15.8588 91.7134 10.3382 98.6001 5.46065 105.592C-0.10846 113.615 -1.43099 121.293 1.55376 128.628C4.51424 135.939 10.872 141.004 20.6514 143.801C23.4298 145.2 26.0749 146.334 28.5015 147.206C30.9403 148.077 33.561 149.026 36.3517 150.081C41.9208 151.822 46.3857 152.165 49.7102 151.137C53.0104 150.081 56.2499 147.125 59.3924 142.218C61.819 139.791 64.088 137.256 66.1992 134.645C68.2861 132.032 70.5549 129.5 72.9815 127.046C74.0371 126.36 75.0927 125.989 76.124 125.989C77.1796 125.989 78.393 125.832 79.7883 125.488V128.893C79.7883 130.106 79.6305 131.425 79.2907 132.797C74.0371 150.609 69.4266 167.365 65.4105 183.064C61.4066 198.765 57.7302 214.913 54.4057 231.485C51.0813 248.055 48.1329 265.945 45.5122 285.129C42.9036 304.338 40.3677 326.318 37.9168 351.097C37.2252 359.118 37.1524 365.581 37.6498 370.464C38.1837 375.345 39.6519 379.172 42.1149 381.968C44.5415 384.765 48.1329 386.771 52.8527 387.985C57.5482 389.225 63.7482 390.017 71.4285 390.333C77.3616 390.703 81.1107 390.174 82.6637 388.776C84.2532 387.378 84.8599 383.711 84.5202 377.773C84.1683 374.29 83.9013 371.071 83.7193 368.089C83.5373 365.134 83.2704 362.074 82.9307 358.933C82.9307 358.247 83.1127 357.719 83.4646 357.376C83.8043 357.033 85.7941 355.713 86.6556 356.056C87.5292 356.399 88.1843 358.247 88.1843 358.933C88.8638 362.442 89.2035 366.005 89.2035 369.673C89.2035 373.34 89.5554 376.559 90.2712 379.356C90.9507 381.097 92.2732 382.496 94.2024 383.55C96.0952 384.58 102.198 386.871 103.351 378.3C103.69 373.761 104.309 367.825 105.183 360.516C106.044 353.18 106.833 345.687 107.549 338.009C108.24 330.328 109.029 322.914 109.903 315.764C110.776 308.613 111.553 302.756 112.244 298.217C112.584 296.132 112.96 294.733 113.3 294.021C113.64 293.336 114.149 292.696 114.853 292.728C119.136 292.923 137.469 302.597 142.881 306.08C148.292 309.563 153.776 313.389 159.369 317.584C164.939 321.779 170.265 325.975 175.337 330.145C180.372 334.341 185.359 337.665 190.248 340.092C207.344 350.224 223.311 361.122 238.138 372.813C252.964 384.502 268.932 395.4 286.027 405.532C287.774 406.903 289.958 407.801 292.567 408.144C295.212 408.486 300.09 410.468 301.497 402.127C301.946 399.42 302.261 397.325 301.23 395.584C299.459 392.101 298.961 388.855 299.653 385.901C300.356 382.945 301.752 380.068 303.839 377.271C309.068 369.592 307.673 362.442 299.653 355.792C296.158 352.996 292.652 350.224 289.17 347.428C285.687 344.632 282.011 342.019 278.189 339.564C262.489 329.09 246.692 318.719 230.834 308.428C214.951 298.138 198.608 287.926 181.876 277.793C179.777 276.052 177.763 274.653 175.87 273.624C173.941 272.569 171.757 271.171 169.319 269.429C168.603 268.743 168.263 267.607 168.263 266.025C168.263 264.467 168.603 263.334 169.319 262.621C170.35 261.223 171.563 260.087 172.971 259.217C174.366 258.346 175.604 257.581 176.623 256.868C191.983 245.707 207.077 234.809 221.904 224.149C236.742 213.514 251.496 202.618 266.165 191.43C273.809 185.492 280.543 179.582 286.294 173.645C292.07 167.707 297.299 161.507 301.994 155.042C306.714 148.603 311.179 141.716 315.341 134.381C319.539 127.046 324.089 119.208 328.954 110.817C332.109 104.88 333.686 97.3869 333.686 88.3101C333.686 79.2321 332.364 70.182 329.755 61.1052Z" fill="white"/>
</svg>
