<svg width="423" height="127" viewBox="0 0 423 127" fill="none" xmlns="http://www.w3.org/2000/svg">
<g id="logoPrincipal">
<path id="Vector" d="M0 63.3985V126.33L211.2 126.244L422.355 126.116L422.49 63.2697L422.58 0.466751H211.29H0V63.3985ZM417.174 63.1837V121.175H274.812H132.451V63.1837V5.19201H274.812H417.174V63.1837ZM81.813 25.4247C91.9946 27.1859 98.2116 35.1759 98.2116 46.5594C98.2116 54.5065 95.1031 60.0909 87.6246 65.6323L85.8225 66.9639L87.8949 69.4984C94.4273 77.5313 99.6533 84.2755 99.5181 84.4044C99.428 84.4474 94.3823 85.822 88.3004 87.4544C82.2184 89.0438 77.0376 90.4613 76.7672 90.5472C76.4969 90.6332 73.2533 86.853 69.6492 82.1277C66 77.3595 62.8014 73.4934 62.486 73.4934C62.1707 73.4934 61.1795 73.7082 60.2785 73.9229L58.5666 74.3955L58.4765 84.9629L58.3413 95.4873L45.9522 98.795L33.5631 102.103L33.428 68.6393C33.3829 50.2108 33.428 35.047 33.5631 34.9181C33.7884 34.7034 50.5024 30.1499 60.5939 27.5296C70.1447 25.081 76.3167 24.4796 81.813 25.4247Z" fill="#FEE9C0"/>
<path id="Vector_2" d="M198.586 19.7973C196.739 20.3128 194.711 21.8592 193.81 23.3627C193.36 24.1789 192.954 26.112 192.819 28.1739C192.594 31.5675 192.594 31.6104 191.332 31.7393L190.071 31.8682L190.206 35.1758C190.341 38.4406 190.341 38.4835 191.603 38.6124L192.819 38.7413V46.9031V55.0219H196.423H200.027V46.8601V38.6983H203.181H206.334V35.2618V31.8252H203.181H200.027V29.2908C200.027 26.7993 200.703 25.7683 201.694 26.7133C201.919 26.9281 203.136 26.112 204.668 24.6085L207.236 22.117L206.244 21.2149C204.352 19.5825 201.289 19.0241 198.586 19.7973Z" fill="#FEE9C0"/>
<path id="Vector_3" d="M220.3 37.4096V55.0219H223.904H227.509V37.4096V19.7973H223.904H220.3V37.4096Z" fill="#FEE9C0"/>
<path id="Vector_4" d="M283.823 37.4097V55.022H287.427C290.76 55.022 291.031 54.9361 291.031 54.1629C291.031 53.3038 291.121 53.3038 293.148 54.4636C298.329 57.3417 305.853 54.6354 308.781 48.8792C310.448 45.6145 310.673 43.4667 309.727 40.0731C307.655 32.8563 298.419 28.6895 292.833 32.4697L291.256 33.5436L291.121 26.6705L291.031 19.7974H287.427H283.823V37.4097ZM300.221 38.7414C303.87 41.4906 303.33 46.8173 299.275 48.4496C296.978 49.3517 294.995 48.8792 293.328 47.0321C292.202 45.8293 291.932 45.142 291.932 43.5526C291.932 41.3618 293.238 39.0851 294.86 38.3118C296.437 37.5816 298.915 37.7963 300.221 38.7414Z" fill="#FEE9C0"/>
<path id="Vector_5" d="M209.533 23.4916C207.641 25.8112 208.812 28.6464 211.831 29.076C213.182 29.2907 213.678 29.1619 214.624 28.2598C217.057 25.9401 215.525 22.3747 212.101 22.3747C210.84 22.3747 210.209 22.6754 209.533 23.4916Z" fill="#FEE9C0"/>
<path id="Vector_6" d="M160.743 31.6535C158.04 32.5556 155.337 34.7464 153.715 37.3238C152.634 39.085 152.498 39.7723 152.498 42.9941C152.498 46.1299 152.679 46.9461 153.715 48.8362C156.913 54.6354 164.617 57.4276 169.302 54.4636C171.105 53.3467 171.195 53.3467 171.195 54.1629C171.195 54.9361 171.465 55.022 175.024 55.022H178.853V43.4237V31.8253H175.069C171.42 31.8253 171.285 31.8683 171.51 32.7274C171.78 33.6295 171.69 33.6295 169.708 32.5126C167.05 31.0091 163.671 30.7084 160.743 31.6535ZM167.591 38.3977C168.176 38.6984 169.167 39.6005 169.708 40.3737C173.447 45.6574 166.104 51.8862 161.509 47.2898C160.518 46.3018 160.202 45.5285 160.022 43.6384C159.842 41.3617 159.887 41.2329 161.644 39.5575C163.581 37.7104 165.383 37.3238 167.591 38.3977Z" fill="#FEE9C0"/>
<path id="Vector_7" d="M242.376 31.5675C241.52 31.8682 240.438 32.2977 240.033 32.4696C239.537 32.6414 239.222 32.5984 239.222 32.2977C239.222 31.997 237.87 31.8252 235.393 31.8252H231.563V43.4236V55.0219H235.393H239.222V47.7622C239.222 40.6743 239.267 40.5025 240.348 39.3856C241.97 37.7103 244.583 37.7962 246.16 39.6004C247.331 40.8891 247.331 41.018 247.331 47.977V55.0219H250.935H254.539V48.8791C254.539 45.5285 254.765 42.0489 254.99 41.1898C255.891 38.0969 259.405 37.2378 261.793 39.5145L263.099 40.7602V47.8911V55.0219H266.703H270.307V46.4305C270.307 38.7413 270.217 37.6244 269.451 36.1639C266.523 30.7083 259.45 29.3767 254.629 33.3717L252.963 34.7463L251.296 33.3287C248.728 31.095 245.439 30.4506 242.376 31.5675Z" fill="#FEE9C0"/>
<path id="Vector_8" d="M208.587 43.4236V55.0219H212.191H215.795V43.4236V31.8252H212.191H208.587V43.4236Z" fill="#FEE9C0"/>
<path id="Vector_9" d="M314.052 43.4665L318.422 55.1508L317.07 58.6303C316.35 60.5204 315.358 63.1407 314.908 64.3435L314.052 66.6202H317.971H321.891L323.287 62.84C324.098 60.7781 327.072 53.0029 329.955 45.5714C332.838 38.1399 335.181 31.997 335.181 31.9111C335.181 31.8682 333.424 31.8682 331.261 31.9111L327.297 32.04L324.864 38.3546C323.513 41.8771 322.296 44.7123 322.116 44.7123C321.936 44.7123 320.9 41.8771 319.773 38.3546L317.791 32.04L313.692 31.9111L309.637 31.7822L314.052 43.4665Z" fill="#FEE9C0"/>
<path id="Vector_10" d="M296.032 68.3816C292.337 69.7992 290.896 71.99 290.58 76.7152C290.355 79.894 290.265 80.1518 289.364 80.2806C288.373 80.4095 288.328 80.6243 288.328 83.846C288.328 87.1967 288.328 87.2396 289.454 87.2396H290.58V95.4014V103.563H294.184H297.789V95.4014V87.2396H300.942H304.096V83.8031V80.4095L301.077 80.2806L298.014 80.1518L297.879 77.8321C297.743 75.4265 298.239 74.6103 299.591 74.9969C300.041 75.1258 301.257 74.2667 302.744 72.8061C305.177 70.4865 305.177 70.4005 304.321 69.7562C301.978 68.0379 298.464 67.4365 296.032 68.3816Z" fill="#FEE9C0"/>
<path id="Vector_11" d="M233.816 85.9509V103.563H237.645H241.474V85.9509V68.3386H237.645H233.816V85.9509Z" fill="#FEE9C0"/>
<path id="Vector_12" d="M153.625 87.2396V103.563H157.229H160.788L160.923 97.2056L161.058 90.891H162.364C163.581 90.891 163.941 91.3635 167.5 97.2056L171.375 103.563H175.564H179.799L179.259 102.575C178.943 102.06 177.231 99.1816 175.429 96.2176C173.582 93.2536 172.096 90.6332 172.096 90.4184C172.096 90.2037 172.816 89.5593 173.672 88.9579C178.673 85.4784 179.078 77.4884 174.483 73.4505C171.825 71.0879 171.014 70.916 161.959 70.916H153.625V87.2396ZM169.257 77.875C170.699 79.1637 170.654 81.3545 169.167 82.7721C168.131 83.7601 167.771 83.846 164.572 83.7172L161.058 83.5883L160.923 80.2377L160.788 76.93H164.482C167.681 76.93 168.356 77.0589 169.257 77.875Z" fill="#FEE9C0"/>
<path id="Vector_13" d="M267.019 71.2167C266.883 71.4315 264.27 78.2187 261.162 86.3805C258.053 94.5423 255.305 101.716 255.035 102.403L254.539 103.563H258.504H262.468L263.414 101.072L264.315 98.6232L271.253 98.4943L278.191 98.4084L279.092 100.857L279.993 103.348L283.913 103.477L287.877 103.606L286.3 99.3964C285.444 97.0767 282.651 89.7311 280.128 83.0728L275.488 70.916H271.343C269.091 70.916 267.109 71.0449 267.019 71.2167ZM273.416 86.1228C274.407 88.7861 275.263 91.1057 275.263 91.2776C275.263 91.4064 273.416 91.5353 271.163 91.5353C267.784 91.5353 267.109 91.4064 267.289 90.9339C267.424 90.5903 268.325 88.2706 269.226 85.7791C270.172 83.2876 271.073 81.2257 271.253 81.2257C271.389 81.2257 272.38 83.4165 273.416 86.1228Z" fill="#FEE9C0"/>
<path id="Vector_14" d="M187.143 80.1947C184.53 81.0968 181.737 83.5454 180.34 86.1228C179.349 87.927 179.124 88.872 179.124 91.5353C179.124 95.3156 180.25 98.0218 182.863 100.427C186.602 103.95 192.774 105.11 196.108 102.962C197.595 101.974 197.685 101.974 197.91 102.747C198.135 103.477 198.586 103.563 201.784 103.563H205.433V91.9649V80.3666H201.829C198.496 80.3666 198.225 80.4525 198.225 81.2257C198.225 82.0419 198.135 82.0419 196.378 80.925C194.126 79.5074 190.026 79.1638 187.143 80.1947ZM194.621 87.0249C196.333 87.884 197.324 89.7312 197.324 92.1367C197.324 94.4994 195.793 96.4754 193.27 97.1627C190.972 97.807 188.449 96.6902 187.278 94.5423C184.665 89.7312 189.711 84.6193 194.621 87.0249Z" fill="#FEE9C0"/>
<path id="Vector_15" d="M312.926 80.1516C308.105 81.9129 304.861 86.5522 304.816 91.75C304.816 98.8379 309.997 103.993 317.16 103.993C320.719 103.993 323.017 103.048 325.405 100.728C328.153 97.9787 329.099 95.745 329.099 91.75C329.099 88.0557 328.378 86.2086 325.9 83.4164C323.017 80.1087 317.115 78.6482 312.926 80.1516ZM319.458 87.3684C322.522 89.3015 322.702 93.726 319.818 96.0027C316.755 98.4942 312.745 96.6041 312.34 92.5232C311.844 87.8409 315.809 85.0058 319.458 87.3684Z" fill="#FEE9C0"/>
<path id="Vector_16" d="M341.803 79.937C341.083 80.1518 340.227 80.5813 339.821 80.882C339.236 81.3116 339.055 81.3116 338.92 80.882C338.785 80.5384 337.569 80.3665 334.911 80.3665H331.126V91.9649V103.563H334.956H338.785V96.4324C338.785 92.1797 338.965 89.0009 339.281 88.4424C339.551 87.9699 340.452 87.3255 341.308 86.9819C342.614 86.4664 343.065 86.4664 344.371 86.9819C345.227 87.3255 346.128 87.9699 346.399 88.4424C346.714 89.0009 346.894 92.1797 346.894 96.4324V103.563H350.769H354.643L354.463 94.843C354.328 86.2516 354.328 86.1657 353.066 84.1467C350.904 80.6243 345.813 78.6912 341.803 79.937Z" fill="#FEE9C0"/>
<path id="Vector_17" d="M361.085 80.3236C356.851 82.1707 355.139 86.5523 357.166 90.2466C358.202 92.0938 362.031 94.4134 364.735 94.8C367.347 95.1437 368.474 95.9599 367.798 96.9908C367.122 98.0218 363.924 98.2796 363.113 97.3345C362.347 96.4754 361.536 96.5613 358.427 97.9359L355.814 99.0957L357.031 100.47C358.833 102.489 361.491 103.649 364.915 103.864C367.483 104.036 368.158 103.907 370.321 102.833C375.322 100.384 376.358 95.0578 372.483 91.7072C371.087 90.4614 367.302 88.7002 365.275 88.3565C363.383 88.0129 362.932 87.5833 363.338 86.4235C363.743 85.1348 365.636 84.92 367.663 85.908L369.42 86.7671L372.123 85.2207L374.871 83.6742L373.655 82.4714C370.771 79.5933 365.005 78.6053 361.085 80.3236Z" fill="#FEE9C0"/>
<path id="Vector_18" d="M383.566 80.1946C380.863 81.0967 378.205 83.5023 376.763 86.2945C375.727 88.3564 375.502 89.2585 375.547 91.9648C375.547 95.9168 376.898 98.709 380.052 101.372C382.395 103.305 384.332 103.993 387.62 103.993C390.909 103.993 393.162 103.177 395.549 101.115C398.478 98.6231 399.784 95.6591 399.784 91.707C399.784 83.2875 391.63 77.4883 383.566 80.1946ZM389.693 87.0247C391.45 87.8839 392.396 89.731 392.396 92.2225C392.396 93.8978 392.171 94.4133 390.864 95.6591C389.693 96.7759 388.972 97.1196 387.666 97.1196C386.359 97.1196 385.638 96.7759 384.467 95.6591C383.16 94.4133 382.935 93.8978 382.935 92.2225C382.935 89.774 383.881 87.9268 385.548 87.0677C387.125 86.2515 388.071 86.2086 389.693 87.0247Z" fill="#FEE9C0"/>
<path id="Vector_19" d="M207.686 88.6572C207.686 96.6901 207.731 97.0338 208.812 99.1387C210.434 102.189 212.822 103.692 216.471 103.907C218.588 104.036 219.76 103.864 221.382 103.22C223.048 102.489 223.454 102.446 223.454 102.962C223.454 103.434 224.22 103.563 227.058 103.563H230.662V91.9649V80.3665H227.103H223.499L223.364 87.7122C223.229 94.843 223.184 95.0578 222.147 95.874C220.661 97.0338 219.129 97.2915 217.552 96.6901C215.255 95.7451 214.894 94.4993 214.894 87.0249V80.3665H211.29H207.686V88.6572Z" fill="#FEE9C0"/>
<path id="Vector_20" d="M45.8622 35.8203L37.843 37.9681V46.3018C37.843 54.077 37.8881 54.6354 38.654 54.4206C39.0594 54.2917 42.6185 53.3037 46.583 52.2298C50.5024 51.1988 53.7912 50.2538 53.9263 50.1679C54.0164 50.082 54.0164 46.3018 53.9714 41.8343L53.8362 33.6295L45.8622 35.8203Z" fill="#FEE9C0"/>
<path id="Vector_21" d="M45.8622 56.912L37.843 59.1028V67.3076V75.5124L45.9523 73.3645L54.0615 71.2167V62.883C54.0615 58.3296 54.0164 54.6353 53.9714 54.6353C53.8813 54.6783 50.2321 55.7093 45.8622 56.912Z" fill="#FEE9C0"/>
<path id="Vector_22" d="M45.7721 77.8321C41.5823 78.9489 38.1134 79.9799 37.9782 80.0658C37.8881 80.1517 37.8881 83.9319 37.9332 88.3994L38.0683 96.5612L44.3755 94.8859C47.8445 93.9838 51.4485 93.0388 52.3946 92.781L54.0615 92.3515V84.0178C54.0615 79.4215 53.9264 75.6842 53.7462 75.6842C53.5209 75.7272 49.9619 76.6722 45.7721 77.8321Z" fill="#FEE9C0"/>
</g>
</svg>
