<svg width="67" height="78" viewBox="0 0 67 78" fill="none" xmlns="http://www.w3.org/2000/svg">
<g id="logoRaul_ 1">
<path id="Vector" d="M40.0527 5.55141C36.8868 5.6692 33.0877 6.27295 29.5241 7.23009C25.7397 8.24613 8.2314 13.1644 6.96502 13.562L6.47909 13.7239V41.9817C6.47909 57.5169 6.52326 70.2395 6.59689 70.2395C6.65579 70.2395 11.1175 69.0026 16.5217 67.4859L26.3582 64.7323L26.3877 55.9707L26.4318 47.1945L27.389 46.8705C27.9191 46.7085 28.6848 46.4582 29.0971 46.3404L29.8481 46.1195L31.0114 47.6804C34.2951 52.1569 40.2441 60.3294 40.3472 60.5209C40.4797 60.7565 39.5373 61.0068 51.5384 57.62C55.7057 56.442 59.1808 55.4406 59.2397 55.367C59.3428 55.2787 55.529 50.1837 49.7272 42.7033C48.9468 41.6872 48.2989 40.8332 48.3136 40.789C48.3136 40.7448 48.8143 40.3472 49.4327 39.9055C51.0083 38.7716 53.6 36.2389 54.6307 34.8694C57.9881 30.3635 59.0483 24.5912 57.6494 18.3771C56.7365 14.2982 54.4835 10.558 51.7151 8.51118C48.9468 6.46437 44.7059 5.38943 40.0527 5.55141ZM23.1186 19.5846C23.1186 26.0195 23.1039 26.5055 22.8683 26.638C22.6327 26.7558 12.6195 29.5978 10.8967 30.0395C10.5285 30.1279 10.131 30.231 10.0132 30.2751C9.79227 30.334 9.76282 28.4934 9.85118 17.4347L9.8659 16.3892L12.487 15.6235C16.2714 14.5044 22.7211 12.6932 22.9419 12.6784C23.0745 12.6637 23.1186 14.1362 23.1186 19.5846ZM23.0745 37.358L23.045 44.22L22.0143 44.5734C21.1307 44.8679 11.2354 47.6804 10.1457 47.9307L9.76282 48.0338L9.77755 41.1129C9.79227 37.2991 9.83645 34.1479 9.88063 34.1037C9.9248 34.0595 12.2661 33.3674 15.1081 32.5723C21.9995 30.6138 22.3971 30.5107 22.78 30.496L23.1186 30.4813L23.0745 37.358ZM23.0892 55.1167L23.1186 61.9787L22.6474 62.1259C15.9916 64.0696 9.99843 65.7041 9.89535 65.6011C9.85118 65.5716 9.807 62.4499 9.79227 58.6949L9.7481 51.8477L10.1457 51.7004C11.3237 51.2439 22.6327 48.1369 22.8978 48.2105C22.9861 48.24 23.0597 50.6991 23.0892 55.1167Z" fill="black"/>
</g>
</svg>
