<svg width="32" height="44" viewBox="0 0 32 44" fill="none" xmlns="http://www.w3.org/2000/svg">
<path id="play" d="M29.7694 22.012L29.7688 22.0124L2.23733 41.6777C2.23709 41.6779 2.23685 41.6781 2.2366 41.6783C2.16698 41.7276 2.08515 41.757 2.00001 41.7631C1.91456 41.7692 1.82909 41.7517 1.75294 41.7124C1.67679 41.6732 1.61291 41.6138 1.5683 41.5406C1.52373 41.4676 1.5001 41.3837 1.5 41.2981V1.96611C1.5001 1.88055 1.52373 1.79665 1.5683 1.72361C1.61291 1.65048 1.67679 1.59105 1.75294 1.55182C1.82909 1.51259 1.91457 1.49507 2.00001 1.50119C2.08519 1.50729 2.16707 1.53666 2.23672 1.58608C2.23692 1.58622 2.23713 1.58637 2.23733 1.58651L29.7688 21.2519L29.7694 21.2523C29.8299 21.2954 29.8792 21.3524 29.9132 21.4185C29.9472 21.4846 29.965 21.5578 29.965 21.6321C29.965 21.7064 29.9472 21.7797 29.9132 21.8458C29.8792 21.9118 29.8299 21.9688 29.7694 22.012Z" fill="#F23030" stroke="#F23030" stroke-width="3"/>
</svg>
