<svg width="53" height="85" viewBox="0 0 53 85" fill="none" xmlns="http://www.w3.org/2000/svg">
<g id="study__icon">
<path id="bg" d="M0.500031 0.5L52.4236 22.4386L52.4236 83.9998L0.500042 58.9999L0.500031 0.5Z" fill="#161616"/>
<path id="chapeu" d="M45.4179 36.9421L45.5327 50.9353H42.4347L42.3349 38.7725L42.3315 38.3497L41.9627 38.5535L38.3809 40.5323L38.2519 40.6036L38.2532 40.7514L38.3405 51.3963L26.0524 58.0966L13.6544 51.3963L13.567 40.7514L13.5658 40.6036L13.4357 40.5323L6.60896 36.7946L25.7914 26.2848L45.4179 36.9421ZM25.8152 43.6697L25.9346 43.7339L26.0529 43.6697L38.3215 37.0136L38.7269 36.7937L38.3179 36.5737L25.94 29.9176L25.8207 29.8535L25.7024 29.9176L13.4338 36.5737L13.0284 36.7937L13.4374 37.0136L25.8152 43.6697ZM25.9042 54.5084L26.0235 54.5726L26.1417 54.5084L35.0969 49.6513L35.2276 49.5804L35.2263 49.4313L35.1706 42.6403L35.1672 42.2175L34.7984 42.4212L25.9638 47.3021L17.0492 42.4212L16.6771 42.2175L16.6806 42.6403L16.7363 49.4313L16.7375 49.5804L16.8693 49.6513L25.9042 54.5084Z" fill="#FEE9C0" stroke="#FEE9C0" stroke-width="0.5"/>
</g>
</svg>
