<svg width="59" height="79" viewBox="0 0 59 79" fill="none" xmlns="http://www.w3.org/2000/svg">
<g id="study__icon2">
<path id="bg" d="M0 0L58.4243 16.4388L58.4243 78L0.496798 60.5612L0 0Z" fill="#161616"/>
<path id="chapeu" d="M48.4179 33.9421L48.5327 47.9353H45.4347L45.3349 35.7725L45.3315 35.3497L44.9627 35.5535L41.3809 37.5323L41.2519 37.6036L41.2532 37.7514L41.3405 48.3963L29.0524 55.0966L16.6544 48.3963L16.567 37.7514L16.5658 37.6036L16.4357 37.5323L9.60896 33.7946L28.7914 23.2848L48.4179 33.9421ZM28.8152 40.6697L28.9346 40.7339L29.0529 40.6697L41.3215 34.0136L41.7269 33.7937L41.3179 33.5737L28.94 26.9176L28.8207 26.8535L28.7024 26.9176L16.4338 33.5737L16.0284 33.7937L16.4374 34.0136L28.8152 40.6697ZM28.9042 51.5084L29.0235 51.5726L29.1417 51.5084L38.0969 46.6513L38.2276 46.5804L38.2263 46.4313L38.1706 39.6403L38.1672 39.2175L37.7984 39.4212L28.9638 44.3021L20.0492 39.4212L19.6771 39.2175L19.6806 39.6403L19.7363 46.4313L19.7375 46.5804L19.8693 46.6513L28.9042 51.5084Z" fill="#FEE9C0" stroke="#FEE9C0" stroke-width="0.5"/>
</g>
</svg>
